<svg width="676" height="146" viewBox="0 0 676 146" fill="none" xmlns="http://www.w3.org/2000/svg">
<path d="M101.801 40.768C101.409 47.6933 93.1767 62.6547 77.1047 85.652C77.366 89.18 76.974 91.7933 75.9287 93.492C73.3154 97.5427 69.33 100.156 63.9727 101.332C54.1727 112.047 46.986 119.625 42.4127 124.068C28.562 137.396 17.586 143.799 9.4847 143.276C3.9967 143.015 0.860696 139.225 0.0766957 131.908C-0.707304 124.591 4.51936 113.027 15.7567 97.216C19.0234 92.6427 24.3807 86.044 31.8287 77.42C27.5167 73.5 25.2954 69.8413 25.1647 66.444C24.9034 59.6493 31.7634 50.176 45.7447 38.024C58.4194 27.048 70.7674 21.2987 82.7887 20.776C88.4074 20.5147 93.1114 22.4747 96.9007 26.656C100.429 30.7067 102.062 35.4107 101.801 40.768ZM94.3527 39.2C94.3527 36.9787 93.242 34.692 91.0207 32.34C88.538 29.7267 85.794 28.42 82.7887 28.42C70.114 28.42 59.0074 33.6467 49.4687 44.1C38.8847 56.252 33.7887 63.8307 34.1807 66.836C34.1807 67.3587 35.8794 69.2533 39.2767 72.52C44.3727 74.7413 46.5287 75.5907 45.7447 75.068C47.7047 76.244 49.0767 78.988 49.8607 83.3C53.7807 87.3507 57.766 89.5067 61.8167 89.768C65.7367 86.3707 68.2194 84.084 69.2647 82.908C72.0087 79.6413 75.7327 74.1533 80.4367 66.444C89.714 51.4173 94.3527 42.336 94.3527 39.2ZM55.3487 96.04C52.6047 95.1253 49.2727 93.1653 45.3527 90.16L40.8447 86.24C38.8847 84.5413 37.2514 83.3 35.9447 82.516C27.582 92.708 22.486 99.2413 20.6567 102.116C12.0327 115.967 7.9167 125.179 8.3087 129.752C8.57003 133.411 9.55003 135.305 11.2487 135.436C17.2594 135.828 26.2754 129.817 38.2967 117.404C48.0967 106.951 53.7807 99.8293 55.3487 96.04Z" fill="white" fill-opacity="0.01"/>
<path d="M208.887 109.956C209.018 112.047 205.424 115.901 198.107 121.52C190.659 127.139 183.93 131.255 177.919 133.868C169.295 137.527 161.716 139.356 155.183 139.356C147.866 139.356 142.378 136.481 138.719 130.732C138.066 129.817 137.216 128.315 136.171 126.224C134.995 123.611 134.146 121.847 133.623 120.932C132.708 121.716 130.814 123.153 127.939 125.244C125.326 127.073 123.17 128.772 121.471 130.34C120.818 130.863 118.662 133.476 115.003 138.18C111.867 142.1 109.711 144.06 108.535 144.06C105.66 144.06 103.962 143.145 103.439 141.316C103.308 140.924 108.796 134.26 119.903 121.324C130.095 109.695 135.191 102.247 135.191 98.98C135.191 96.7587 134.015 95.452 131.663 95.06C129.572 94.7987 122.386 98.0653 110.103 104.86C107.359 106.297 101.871 109.891 93.6391 115.64C87.2365 120.213 83.5778 122.369 82.6631 122.108C79.2658 121.455 77.8285 120.279 78.3511 118.58C78.6125 117.665 82.4018 114.66 89.7191 109.564C96.9058 104.599 102.132 101.332 105.399 99.764C120.164 92.316 129.311 88.396 132.839 88.004C135.322 87.7427 137.674 88.3307 139.895 89.768C142.247 91.2053 143.423 92.9693 143.423 95.06C143.423 97.2813 142.77 100.025 141.463 103.292C140.156 106.689 139.503 109.172 139.503 110.74C138.85 110.74 144.991 107.081 157.927 99.764C172.039 91.532 179.422 87.4813 180.075 87.612C181.512 87.8733 182.231 89.0493 182.231 91.14C182.231 91.532 176.09 95.844 163.807 104.076L154.007 110.74C149.826 113.745 146.167 116.228 143.031 118.188C142.639 118.711 142.77 120.409 143.423 123.284C143.684 124.983 144.86 126.877 146.951 128.968C149.695 131.581 152.7 132.823 155.967 132.692C162.37 132.431 168.38 130.993 173.999 128.38C178.311 126.289 184.975 122.173 193.991 116.032C201.831 110.675 206.143 107.996 206.927 107.996C207.972 107.996 208.626 108.649 208.887 109.956Z" fill="white" fill-opacity="0.01"/>
<path d="M261.645 108.192C261.645 115.509 256.483 123.349 246.161 131.712C236.753 139.421 226.43 143.145 215.193 142.884C208.659 142.753 203.629 140.793 200.101 137.004C197.095 133.737 195.723 129.817 195.985 125.244C196.246 117.927 199.382 112.504 205.393 108.976C206.438 108.323 208.529 107.996 211.665 107.996C212.449 107.473 213.559 106.428 214.997 104.86C216.565 103.292 217.741 102.247 218.525 101.724C228.847 95.5827 237.275 92.512 243.809 92.512C249.166 92.512 253.478 94.0147 256.745 97.02C260.011 99.8947 261.645 103.619 261.645 108.192ZM254.197 107.016C254.197 102.704 250.995 100.417 244.593 100.156C237.667 99.8947 231.069 102.377 224.797 107.604C223.882 108.257 222.641 109.76 221.073 112.112C219.766 114.072 218.394 115.248 216.957 115.64C216.173 115.771 215.323 115.771 214.409 115.64H211.861C209.639 115.901 207.614 117.469 205.785 120.344C204.478 122.696 203.825 124.525 203.825 125.832C203.825 128.445 205.132 130.797 207.745 132.888C210.489 134.848 213.625 135.828 217.153 135.828C223.817 135.828 231.395 133.019 239.889 127.4C249.427 120.997 254.197 114.203 254.197 107.016Z" fill="white" fill-opacity="0.01"/>
<path d="M482.615 6.076C482.615 9.86533 474.187 17.9013 457.331 30.184C451.582 34.3653 445.767 37.7627 439.887 40.376C436.751 42.336 429.107 47.4973 416.955 55.86L415.975 62.132C415.322 65.9213 414.799 68.6653 414.407 70.364C412.186 82.3853 404.868 95.7133 392.455 110.348C372.855 132.692 355.542 144.256 340.515 145.04C329.931 145.563 318.106 142.231 305.039 135.044C298.114 138.18 292.234 139.617 287.399 139.356C284.002 139.225 280.735 138.245 277.599 136.416C271.588 133.28 268.583 129.164 268.583 124.068C268.583 121.585 270.151 119.037 273.287 116.424C276.554 113.811 279.82 112.504 283.087 112.504C288.052 112.504 292.952 114.268 297.787 117.796C300.008 119.495 303.144 122.5 307.195 126.812C325.488 116.62 342.867 105.644 359.331 93.884C370.568 85.7827 383.766 75.46 398.923 62.916L373.051 71.736C350.838 78.2693 338.359 81.4707 335.615 81.34C333.786 81.34 332.871 80.36 332.871 78.4L371.287 65.464C391.932 58.016 403.562 53.704 406.175 52.528C407.09 50.176 407.547 48.216 407.547 46.648C407.547 39.4613 402.582 32.2747 392.651 25.088C386.51 20.6453 379.584 17.248 371.875 14.896C364.558 12.6747 358.09 11.76 352.471 12.152C336.007 13.1973 324.443 16.072 317.779 20.776C307.848 27.7013 302.818 34.9533 302.687 42.532C302.556 48.804 305.496 55.076 311.507 61.348C315.688 65.1373 321.307 67.032 328.363 67.032C332.675 67.032 338.947 65.2027 347.179 61.544C357.502 56.7093 362.663 52.9853 362.663 50.372C362.663 48.5427 361.552 47.3667 359.331 46.844L353.059 45.864C351.23 45.472 348.878 45.472 346.003 45.864C342.867 46.256 340.711 46.3867 339.535 46.256C338.228 46.1253 337.575 45.08 337.575 43.12C337.575 41.8133 339.666 40.768 343.847 39.984C347.898 39.3307 351.556 39.3307 354.823 39.984C359.919 41.16 363.186 42.0747 364.623 42.728C367.759 44.1653 369.392 46.452 369.523 49.588C369.784 54.4227 363.839 59.8453 351.687 65.856C342.279 70.56 334.439 72.912 328.167 72.912C316.799 73.1733 308.698 70.1027 303.863 63.7C297.983 55.86 295.108 48.6733 295.239 42.14C295.37 31.6867 301.576 22.736 313.859 15.288C324.966 9.016 337.51 5.61867 351.491 5.096C358.547 4.96534 366.648 6.14134 375.795 8.62401C386.248 11.4987 395.003 16.2027 402.059 22.736C407.808 27.832 411.663 32.4053 413.623 36.456C414.538 37.8933 415.387 40.8333 416.171 45.276C419.438 43.0547 423.162 40.18 427.343 36.652C433.223 31.6867 437.078 28.4853 438.907 27.048C462.688 9.016 475.232 0 476.539 0C480.59 0 482.615 2.02533 482.615 6.076ZM389.711 79.772C379.519 87.7427 371.222 94.08 364.819 98.784C348.224 110.413 330.911 121.389 312.879 131.712C321.503 136.416 330.062 138.507 338.555 137.984C352.014 137.2 368.216 126.42 387.163 105.644C396.832 94.7987 403.039 84.28 405.783 74.088C406.828 70.4293 407.416 67.62 407.547 65.66L389.711 79.772ZM300.531 130.144C297.787 126.747 295.696 124.525 294.259 123.48C290.731 120.213 287.203 118.58 283.675 118.58C281.846 118.711 280.016 119.495 278.187 120.932C276.358 122.369 275.508 123.741 275.639 125.048C275.639 126.224 277.011 127.792 279.755 129.752C282.107 131.973 284.851 133.149 287.987 133.28C291.776 133.541 295.958 132.496 300.531 130.144Z" fill="white" fill-opacity="0.01"/>
<path d="M485.016 108.192C485.016 115.509 479.855 123.349 469.532 131.712C460.124 139.421 449.801 143.145 438.564 142.884C432.031 142.753 427 140.793 423.472 137.004C420.467 133.737 419.095 129.817 419.356 125.244C419.617 117.927 422.753 112.504 428.764 108.976C429.809 108.323 431.9 107.996 435.036 107.996C435.82 107.473 436.931 106.428 438.368 104.86C439.936 103.292 441.112 102.247 441.896 101.724C452.219 95.5827 460.647 92.512 467.18 92.512C472.537 92.512 476.849 94.0147 480.116 97.02C483.383 99.8947 485.016 103.619 485.016 108.192ZM477.568 107.016C477.568 102.704 474.367 100.417 467.964 100.156C461.039 99.8947 454.44 102.377 448.168 107.604C447.253 108.257 446.012 109.76 444.444 112.112C443.137 114.072 441.765 115.248 440.328 115.64C439.544 115.771 438.695 115.771 437.78 115.64H435.232C433.011 115.901 430.985 117.469 429.156 120.344C427.849 122.696 427.196 124.525 427.196 125.832C427.196 128.445 428.503 130.797 431.116 132.888C433.86 134.848 436.996 135.828 440.524 135.828C447.188 135.828 454.767 133.019 463.26 127.4C472.799 120.997 477.568 114.203 477.568 107.016Z" fill="white" fill-opacity="0.01"/>
<path d="M675.998 110.348C676.129 112.831 667.374 118.972 649.734 128.772C639.019 134.652 630.395 137.527 623.862 137.396C612.363 137.004 606.614 132.823 606.614 124.852C606.614 121.324 608.051 116.881 610.926 111.524C611.841 109.695 613.409 107.277 615.63 104.272C617.851 101.267 619.158 99.372 619.55 98.588C613.67 100.287 604.131 105.252 590.934 113.484C578.651 120.932 570.55 126.028 566.63 128.772C557.614 135.044 553.171 138.18 553.302 138.18C551.473 137.919 550.558 137.135 550.558 135.828C550.689 134.783 551.473 132.692 552.91 129.556C554.609 125.897 555.654 123.545 556.046 122.5C557.353 118.58 558.006 115.183 558.006 112.308C556.438 113.223 553.237 115.313 548.402 118.58C542.914 122.239 538.667 124.983 535.662 126.812C517.891 137.527 506.001 142.884 499.99 142.884C495.809 142.884 492.411 141.708 489.798 139.356C486.923 136.743 485.486 133.215 485.486 128.772C485.486 126.42 487.446 122.631 491.366 117.404C495.547 111.785 498.945 109.041 501.558 109.172C503.649 109.172 504.825 110.348 505.086 112.7C505.217 114.007 504.433 115.313 502.734 116.62C500.513 118.188 499.206 119.364 498.814 120.148C496.201 124.591 494.763 128.119 494.502 130.732C494.371 131.908 494.894 133.084 496.07 134.26C497.246 135.305 498.422 135.828 499.598 135.828C502.865 135.828 513.841 130.601 532.526 120.148C540.627 115.575 548.729 110.087 556.83 103.684C567.545 95.452 572.51 91.2707 571.726 91.14C574.731 91.4013 576.169 92.5773 576.038 94.668C576.038 94.1453 574.731 98.3267 572.118 107.212L570.158 115.836C577.867 112.308 586.361 107.735 595.638 102.116C612.233 92.5773 623.731 88.004 630.134 88.396C632.878 88.6573 634.185 89.7027 634.054 91.532C634.054 91.4013 632.094 94.276 628.174 100.156C627.39 101.463 625.887 103.553 623.666 106.428C621.967 108.78 620.595 111.001 619.55 113.092C616.937 118.188 615.499 121.977 615.238 124.46C614.977 127.596 617.851 129.425 623.862 129.948C628.566 130.34 635.491 128.249 644.638 123.676C648.819 121.585 654.83 118.057 662.67 113.092C669.073 109.172 672.601 107.212 673.254 107.212C674.953 107.212 675.867 108.257 675.998 110.348Z" fill="white" fill-opacity="0.01"/>
</svg>
