<svg width="30" height="30" viewBox="0 0 30 30" fill="none" xmlns="http://www.w3.org/2000/svg">
<g clip-path="url(#clip0_1_620)">
<path d="M25.6076 25.6071C31.4656 19.7491 31.4656 10.2514 25.6076 4.39341C19.7496 -1.46459 10.2519 -1.46459 4.39395 4.39341C-1.46405 10.2514 -1.46405 19.7491 4.39395 25.6071C10.2519 31.4651 19.7496 31.4651 25.6076 25.6071Z" fill="white"/>
<path fill-rule="evenodd" clip-rule="evenodd" d="M6.07639 14.6287C10.2026 12.8988 15.194 10.4358 19.5203 8.77197C23.5131 7.30829 23.447 7.70457 22.8479 11.7007C22.381 14.8949 21.8473 18.0897 21.3136 21.2839C21.1134 22.815 20.3129 23.6135 18.6517 22.6815L13.4601 19.0217C12.7263 18.4213 12.9264 17.9543 13.5269 17.3579L18.3188 12.8321C19.583 11.5646 18.986 11.1016 17.5183 12.0983L10.9344 16.5587C10.0004 17.2258 9.00441 17.2258 7.93968 16.8922L5.67678 16.0917C4.21311 15.558 5.34322 14.9576 6.07706 14.6273L6.07639 14.6287Z" fill="#1F252D"/>
</g>
<defs>
<clipPath id="clip0_1_620">
<rect width="30" height="30" fill="white"/>
</clipPath>
</defs>
</svg>
