<svg width="30" height="30" viewBox="0 0 30 30" fill="none" xmlns="http://www.w3.org/2000/svg">
<g clip-path="url(#clip0_1_614)">
<path d="M25.6076 25.6071C31.4656 19.7491 31.4656 10.2514 25.6076 4.39341C19.7496 -1.46459 10.2519 -1.46459 4.39395 4.39341C-1.46405 10.2514 -1.46405 19.7491 4.39395 25.6071C10.2519 31.4651 19.7496 31.4651 25.6076 25.6071Z" fill="white"/>
<path fill-rule="evenodd" clip-rule="evenodd" d="M9.49283 8.65396C11.2887 8.50986 13.4082 8.43848 15.0246 8.43848C16.6411 8.43848 18.7245 8.50986 20.5564 8.65396C22.6759 8.83342 23.7533 9.19233 24.0408 11.3118C24.1849 12.2818 24.2563 13.6107 24.2563 14.9763C24.2563 16.3413 24.1849 17.7062 24.0408 18.6402C23.7533 20.7957 22.6759 21.1185 20.5564 21.2987C18.7245 21.4781 16.6411 21.5142 15.0246 21.5142C13.4082 21.5142 11.2887 21.4781 9.49283 21.2987C7.37337 21.1185 6.25926 20.7957 5.9724 18.6402C5.84744 17.4229 5.78731 16.1999 5.79228 14.9763C5.78826 13.7525 5.84839 12.5293 5.9724 11.3118C6.25926 9.19233 7.37337 8.83342 9.49283 8.65396Z" fill="#1F252D"/>
<path fill-rule="evenodd" clip-rule="evenodd" d="M13.1562 12.2104L17.9696 14.9764L13.1562 17.7783V12.2104Z" fill="white"/>
</g>
<defs>
<clipPath id="clip0_1_614">
<rect width="30" height="30" fill="white"/>
</clipPath>
</defs>
</svg>
